<svg version="1.0" xmlns="http://www.w3.org/2000/svg" width="776" height="768" viewBox="0 0 582 576"><path d="M272 10.6c-23 2.1-53.1 8.3-72 14.9C138.3 47 87.2 87.4 53 141.5 31 176.4 18.4 210.8 11.8 254c-3.1 19.8-3.1 56.7.1 76.9 5.2 33.6 15.9 65.5 31.6 94.1 7.3 13.3 22.5 35.5 31.8 46.5 38.1 45.2 96 79.8 155.7 93 22.6 5 31.9 5.9 59.5 6 26.9 0 32.9-.5 56-5.1 92.3-18 171.9-83.4 206.6-169.6 16.5-40.9 23.7-88.8 19.5-128.7-4.9-45.3-18.4-85.7-41.1-122.6C488.1 74 414.2 25.5 331.3 13c-13.3-2-47.9-3.4-59.3-2.4zm43.8 45.5C370.1 62 423.9 88 460.3 126c18.5 19.3 31.8 38.6 43.8 63.5 8 16.7 11.6 26.5 16.3 45.2 10.1 40.4 9.8 75.8-1 117.2-9.3 35.8-27 68.5-52.8 97.4-11.7 13-36.7 34.7-40.1 34.7-1.4 0-60.1-24.5-73.8-30.8-4.5-2.1-9.9-5.3-11.9-7.1-7.3-6.4-10.7-17.8-10.8-36.2v-7.5l-7.2 2.4c-21.1 7-39.6 7.1-63.3.2-3.8-1.1-7.1-2-7.1-2-.1 0-.4 6-.6 13.2-.3 12-.6 13.9-3.2 19.4-5 11.1-6.1 11.8-49.1 30.2-15.4 6.6-31.4 13.6-35.6 15.5l-7.7 3.5-3.8-2.5c-2.2-1.5-7.6-5.7-12.2-9.5-38.4-32.2-64.9-74.1-77.2-122.3-5.3-20.7-7.2-36.9-7.2-60-.1-90.3 51.1-172.4 131.4-210.8 26.3-12.6 53.1-20.5 79.8-23.6 10.9-1.2 37.6-1.3 48.8 0z"/><path d="M289 83c-1.4 2.7-.4 5.7 2.1 6.5 4.3 1.4 7-5.3 3-7.5-2.8-1.5-3.9-1.3-5.1 1zM339.7 109.3c-1.4 1.9-4 4-5.6 4.7-3.7 1.5-3.9 2.5-.8 4.1 3.2 1.6 7.7 6.1 7.7 7.5 0 2.8 2 2.2 3.5-1.1 1-1.9 3.3-4.5 5.3-5.7l3.5-2.1-2.9-2.3c-1.6-1.3-4.1-3.7-5.5-5.4l-2.6-3.1-2.6 3.4zM181.2 111.2c-3.1 3.1-.1 8.9 3.6 6.9 2.9-1.5 3.5-4.1 1.6-6.2-2-2.2-3.5-2.4-5.2-.7zM215.7 134.5c-1.2 2.6-2.9 4.2-5.7 5.3-3.6 1.5-5.5 4.2-3 4.2 1.7 0 8.3 6.4 9.5 9.3l1.2 2.8 2.8-4.5c1.5-2.4 4.3-5.3 6.2-6.3 1.8-.9 3.3-2 3.3-2.4 0-.4-1.4-1.2-3-1.9-2.9-1.2-6.2-4.5-8.5-8.5-.9-1.5-1.3-1.2-2.8 2zM407.9 134.5c-6 1.9-14.2 9.3-17.7 15.9-2.3 4.4-2.7 6.3-2.7 14.1 0 10.3 1.6 14.5 8.6 22 5.9 6.4 12.5 9 22.9 9 7 0 9.4-.5 13.5-2.5 19.5-9.6 23.9-35.1 8.8-50.6-5.9-6-12.1-8.7-21.2-9.1-4.8-.2-9.3.3-12.2 1.2zM287.5 139c-2.1 2.3-1.3 6.5 1.7 8.3 2.8 1.8 6.8-.7 6.8-4.2 0-5.6-5-7.9-8.5-4.1zM149.8 155.8c-2.1 7-7.2 13.3-13.3 16.2-4.3 2.1-4.5 2.4-4.5 6.5 0 3.9.3 4.4 3.2 5.4 1.7.6 4.6 2.2 6.4 3.6 3.5 2.7 9.4 13.4 9.4 17.2 0 1.2.5 2.3 1 2.3.6 0 1-.4 1-1 0-.5.9-3.5 2.1-6.5 2.6-7 7.1-12.3 12.7-14.7 4-1.8 4.2-2.1 4.2-6.3 0-4.1-.2-4.4-4.5-6.5-6.8-3.3-14.4-13.4-14.5-19.2 0-3.8-1.6-2.3-3.2 3zM304.5 181.6c-1.6.2-7.3.9-12.5 1.5-48.7 5.5-98.9 31.1-135.5 69.1-46.2 47.8-60.8 102.8-36.9 139 16.4 24.7 47.7 38.7 90.9 40.4 19.2.7 18.9.9 19.3-12.4l.3-10.2h-7c-9 0-28.2-3.3-37.7-6.5-18.6-6.2-29.9-14.5-38.9-28.3-6.1-9.2-7.9-16-7.9-29.7 0-10.3.4-13.4 2.8-21.5 6.7-22.8 19.8-43.1 41.9-65.2 34.7-34.6 74.8-54 128.7-62.3 12.6-2 49.6-3 59.8-1.8 3.9.5 7.2.6 7.2.3 0-1.4-16.5-7.2-26.9-9.6-8.3-1.9-14.2-2.5-27.6-2.8-9.3-.3-18.3-.3-20 0zM464.7 188.1c-3.4 1.9-1.5 7.9 2.5 7.9 2 0 4.2-3.5 3.4-5.5-.8-2.2-3.9-3.5-5.9-2.4zM107 224c-2.5 4.7 2.2 9.4 6.6 6.5 2.6-1.7 3-3.5 1.4-6.6-1.5-2.6-6.6-2.6-8 .1z"/><path d="M274.1 225.5c-9.8 2.2-15.9 4.4-24.2 8.7-29.3 15-47.6 48.5-43.9 80.5 2.3 20.9 9.9 36.5 25 51.3 23 22.7 58.1 30 89.9 18.8 26.2-9.2 46.2-31.2 53.1-58.4 2.5-9.7 2.7-26.4.4-36.7-2.1-9.8-10.1-25.8-16.8-33.9-3.1-3.7-8.7-9.3-12.4-12.4-7.6-6.3-23.5-14.4-33.2-16.9-9.1-2.3-29.8-2.9-37.9-1z"/><path d="M355 224.8c0 .6 1.7 2.1 3.8 3.3 2 1.3 5.6 4.1 7.9 6.2 2.5 2.3 5.5 4 7.5 4.3 7.9 1.2 15.9 3.8 24.8 8.1 19.5 9.4 31 26.1 31 45 0 27.3-27.4 65.1-66.6 92l-11.3 7.8-.1 11.8v11.9l6.8-3.7c21.3-11.7 47.3-33.2 63.3-52.4 20.7-24.8 30.2-46.4 30.3-69.1.1-37.5-32.4-61.8-87.6-65.5-6.4-.5-9.8-.3-9.8.3zM482.3 235.8c-1.7 2.1-4.5 4.5-6.3 5.2-3.7 1.5-3.6 2.2 1 5.2 1.9 1.3 4.6 4 5.9 6.1l2.5 3.7 2.5-4c1.4-2.1 4.1-4.7 5.9-5.7 3.2-1.7 4.4-4.3 1.9-4.3-1.5 0-6.6-4.6-8.7-7.8l-1.5-2.4-3.2 4zM92.5 259.4c-1.1 1.7-4 4.4-6.4 6-4 2.7-4.3 3.1-2.6 4 3.8 2.3 7.6 6 9.1 8.7 1.9 3.7 2.7 3.6 4.7-.6.9-1.9 3.4-4.6 5.7-6.1 2.2-1.5 4-2.8 4-2.9 0-.2-1.6-1.2-3.4-2.3-1.9-1.2-4.8-3.8-6.3-6l-2.8-3.8-2 3zM488 289c-1.5 2.9-.3 5.9 2.6 6.6 3 .8 5.4-1.1 5.4-4 0-4.6-5.9-6.4-8-2.6z"/><path d="M403.3 289.7c-1.9.7-1.6 6 .4 7.2 2.4 1.3 5.3-.4 5.3-3.2 0-3.7-2.4-5.4-5.7-4zM173.2 349.6c-2.7 1.8-2.9 5.5-.4 7.7 3.5 3.2 8.2 1 8.2-3.8 0-2-3.2-5.5-5-5.5-.3 0-1.6.7-2.8 1.6zM467.5 352.3c-1.1 1.7-3.9 4.2-6.3 5.5-2.3 1.3-4.2 2.7-4.2 3.2 0 .4 1.4 1.3 3 2 3.3 1.4 7.5 5.8 8.5 9 .9 2.9 1.8 2.5 4-1.6 1.1-2 3.8-4.8 6-6.2l4-2.5-3-2.1c-3.5-2.5-7.6-6.5-9-8.8-.9-1.5-1.3-1.3-3 1.5zM425.2 420.2c-3.2 3.2.7 10 4.6 7.9 3-1.6 3.7-4.9 1.6-7.2-2-2.2-4.4-2.5-6.2-.7zM396 420.9c0 .6.5 1.3 1 1.6.6.3 1-.1 1-.9 0-.9-.4-1.6-1-1.6-.5 0-1 .4-1 .9z"/></svg>