<svg width="592" height="596" fill="none" xmlns="http://www.w3.org/2000/svg"><g clip-path="url(#a)"><g clip-path="url(#b)"><path d="M89.563 438.674C13.6 481.449 56.375 586.913 81.45 591.338c19.313 3.408 82.804 1.454 113.576 0L433.24 415.074l-139.389-19.175c-42.775 0-143.518 8.555-204.288 42.775Z" fill="#fff"/><path d="M195.026 591.338c-1.099.055 1.19-.057 0 0Zm0 0c-30.772 1.454-94.263 3.408-113.576 0-25.075-4.425-67.85-109.889 8.113-152.664 60.77-34.22 161.513-42.775 204.288-42.775l139.389 19.175-238.214 176.264Z" stroke="#000" stroke-width="2.911"/><path d="M110.211 453.152c52.511-10.03 95.138 20.813 109.888 37.488a146.214 146.214 0 0 1 8.004-10.2c-4.533-19.913-92.817-41.3-117.892-27.288Z" fill="#000001"/><path d="M189.702 593.52c1.864-.081 3.643-.162 5.324-.242l194.566-143.966c-8.572-2.899-30.663-11.818-50.458-24.303-134.295 15.914-155.578 118.972-149.432 168.511Z" fill="#0E1729"/><path d="M411.85 593.277c96.612-30.975 21.388-171.101 21.388-176.263l-36.139-4.972C213.018 423.405 185.682 537.6 195.024 593.277l31.066 255.914h80.053l6.882-255.914h98.825Z" fill="#fff" stroke="#000" stroke-width="2.911"/><path d="M293.85 540.178c11.801 11.8 17.701 40.317 19.177 53.1h11.061c-2.95-14.504-13.127-45.43-30.238-53.1Z" fill="#000001"/><path fill="#000" d="M.106 593h592v3h-592z"/><path d="M308.82 146.087c-3.885-4.944-13.985-20.129-23.308-41.317 2.119-2.473 6.145-9.96 5.298-20.13-11.019-1.695-17.695-25.427-19.656-37.08 14.631-8.117 2.163-29.767 6.942-30.723 5.298-1.06 19.07 4.237 19.07 18.01 0 13.772 23.597 7.271 29.664 4.237 14.832-7.416 9.535 10.595 3.179 27.546-3.391 5.933 8.475 17.304 14.831 22.248 1.695 16.951-13.419 43.084-21.188 54.031 1.059 31.783 1.271 95.349-6.357 95.349-5.085-10.17-7.769-65.685-8.475-92.171Z" fill="#fff" stroke="#000" stroke-width="1.941"/><path d="M299.283 49.672c-1.766 1.766-4.238 6.78 0 12.714M307.758 65.572c-.707 3.884-3.814 9.747-10.595 2.119" stroke="#241715" stroke-width=".97"/><path d="M289.678 96.292c.934-3.235 1.502-7.185 1.13-11.654 5.871 3.179 15.89 4.238 37.079-10.595.846 11.019-25.12 19.423-38.209 22.249ZM343.78 16.836c7.416 18.01-9.535 42.377-13.773 49.793 6.357-16.95 10.594-34.962-3.178-27.546-5.973 3.216-29.664 9.535-29.664-4.238 0-13.772-13.773-19.07-19.07-18.01-4.779.957 7.688 22.608-6.943 30.724-1.586.88-3.491 1.6-5.77 2.119 5.297-7.416 3.178-6.357-1.06-24.367C260.084 7.3 279.154 3.063 297.165.944c18.01-2.119 39.199-2.119 46.615 15.892ZM443.365 131.256c-13.56-17.799-71.335-35.668-98.527-42.377 1.695 16.95-13.419 43.083-21.188 54.031 1.059 31.783 1.271 95.349-6.357 95.349-5.085-10.171-7.769-65.685-8.475-92.171-3.885-4.944-13.985-20.129-23.308-41.318-2.119 6.357-59.328 49.793-68.863 63.566-9.535 13.773-12.713 146.202-12.713 157.856 0 11.654-4.238 91.111 30.723 91.111 27.969 0 142.317 3.885 200.233 5.297 8.475-89.699 22.036-273.546 8.475-291.344Z" fill="#000"/><path d="M203.937 326.185c57.915-12.007 173.747-25.214 173.747 18.011 0 43.224-53.678 67.653-80.517 74.463m80.517-320.352c-7.063 3.211-22.036 18.322-25.426 53.072-4.238 43.436-17.841 58.268-28.861 58.268m-10.815 2.119c-9.023 4.944-28.764 8.688-35.544-15.891-8.476-30.724-26.158-47.675-45.922-42.378m178.351-43.436c-2.119-.896-36.021 22.248-39.199 75.219-3.178 52.972-37.08 152.559-107.003 99.587-26.488-26.486-52.009-43.083-56.295-41.318m78.543 174.79c9.535-9.176 26.062-30.495 15.892-42.36-10.171-11.866-65.802 4.237-92.346 13.772m239.394-230.956c-22.883 14.125-65.048 59.116-50.64 126.072 12.713 38.14 35.946 34.255 45.973 27.545m-3.834 51.913c-13.693.18-39.808 11.929-34.723 57.48" stroke="#fff" stroke-width=".97"/><path d="M317.294 417.293V239.308" stroke="#027269" stroke-width=".97"/><path d="m317.929 415.56-5.207-38.713c-11.839 2.148-36.498 4.229-55.545 6.034-19.941 1.89-24.966 12.36-11.581 15.704-7.002-.874-14.84 8.779-3.669 13.101-8.194 2.911 8.015 6.159 15.96 6.175-4.547.687-12.432 1.954-11.361 6.773 1.072 4.818 48.049-4.042 71.403-9.074Z" fill="#fff"/><path d="m317.929 415.561-5.206-38.713c-2.755.5-6.203.996-10.113 1.486l-11.845 42.618a886.338 886.338 0 0 0 27.164-5.391Z" fill="#000"/><path d="m258.212 418.146 16.473-4.637M245.701 407.801l28.881-3.506M245.596 398.584l29.498-5.102" stroke="#000" stroke-width=".97"/><path d="M474.797 381.565c2.564-40.574 5.362-245.043-40.406-256.065-52.903-12.741-52.21 182.255-29.242 226.74l-108.028 10.982 10.137 67.401c52.52-3.668 163.297 18.08 167.539-49.058Z" fill="#000"/><path d="M434.391 125.499c-52.903-12.74-52.21 182.255-29.243 226.741l-108.027 10.982" stroke="#fff" stroke-width=".97"/><path d="M456.428 154.883c-16.348 1.778-52.678 11.216-61.589 33.338m71.759 2.26c-14.732 6.444-49.222 28.136-53.572 50.404-4.351 22.267 41.726 14.749 60.353 10.62m1.13 38.988c-15.483 7.229-69.759 12.027-81.93-4.52m82.495 74.02c-15.858-9.623-61.508-28.832-73.455-21.471m-42.943 18.081c-6.78 14.691 3.839 68.712 33.903 74.586" stroke="#fff" stroke-width=".97"/><path d="M11.43 279.458h181.935a7.764 7.764 0 0 1 7.222 4.914l54.033 136.97a7.764 7.764 0 0 0 7.221 4.914h141.515a4.713 4.713 0 1 1 0 9.427H67.224a7.763 7.763 0 0 1-7.216-4.901l-55.795-140.7c-2.02-5.096 1.734-10.624 7.216-10.624Z" fill="#fff" stroke="#000" stroke-width="2.911"/><path d="m199.757 282.129 59.851 144.127h-4.042a7.762 7.762 0 0 1-7.166-4.779l-56.644-136.021c-1.189-2.853.908-5.998 4-5.998a4.333 4.333 0 0 1 4.001 2.671ZM60.008 430.782l-55.795-140.7c-2.02-5.096 1.734-10.624 7.216-10.624h14.028c1.155 0 2.292.258 3.34.741 4.966 2.287 13.263 5.883 27.04 12.844 46.091 23.288 51.913 72.775 42.21 97.034-7.867 19.666 96.112 39.994 136.964 45.606H67.224a7.763 7.763 0 0 1-7.216-4.901Z" fill="#000"/><ellipse cx="11.574" cy="13.31" rx="11.574" ry="13.31" transform="scale(-1 1) rotate(20.559 -968.695 -191.568)" fill="#000"/></g></g><defs><clipPath id="a"><path fill="#fff" d="M0 0h592v596H0z"/></clipPath><clipPath id="b"><path fill="#fff" d="M0 0h889v596H0z"/></clipPath></defs></svg>